<svg width="14" height="15" viewBox="0 0 14 15" fill="none" xmlns="http://www.w3.org/2000/svg">
<path d="M7.00443 1H6.71843C6.37364 1 6.04298 1.13696 5.79919 1.38076C5.55539 1.62456 5.41843 1.95522 5.41843 2.3V2.417C5.41819 2.64497 5.35801 2.86887 5.24393 3.06624C5.12984 3.26361 4.96586 3.42751 4.76843 3.5415L4.48893 3.704C4.2913 3.8181 4.06712 3.87817 3.83893 3.87817C3.61073 3.87817 3.38655 3.8181 3.18893 3.704L3.09143 3.652C2.79312 3.47992 2.43872 3.43324 2.10603 3.5222C1.77334 3.61116 1.48954 3.8285 1.31693 4.1265L1.17393 4.3735C1.00185 4.67181 0.955165 5.02621 1.04413 5.3589C1.13309 5.69159 1.35043 5.97539 1.64843 6.148L1.74593 6.213C1.94241 6.32643 2.10578 6.48931 2.21981 6.68544C2.33384 6.88157 2.39456 7.10413 2.39593 7.331V7.6625C2.39684 7.89157 2.3372 8.11682 2.22306 8.31543C2.10891 8.51404 1.94431 8.67896 1.74593 8.7935L1.64843 8.852C1.35043 9.02461 1.13309 9.30841 1.04413 9.6411C0.955165 9.97379 1.00185 10.3282 1.17393 10.6265L1.31693 10.8735C1.48954 11.1715 1.77334 11.3888 2.10603 11.4778C2.43872 11.5668 2.79312 11.5201 3.09143 11.348L3.18893 11.296C3.38655 11.1819 3.61073 11.1218 3.83893 11.1218C4.06712 11.1218 4.2913 11.1819 4.48893 11.296L4.76843 11.4585C4.96586 11.5725 5.12984 11.7364 5.24393 11.9338C5.35801 12.1311 5.41819 12.355 5.41843 12.583V12.7C5.41843 13.0448 5.55539 13.3754 5.79919 13.6192C6.04298 13.863 6.37364 14 6.71843 14H7.00443C7.34921 14 7.67987 13.863 7.92366 13.6192C8.16746 13.3754 8.30443 13.0448 8.30443 12.7V12.583C8.30466 12.355 8.36484 12.1311 8.47893 11.9338C8.59301 11.7364 8.757 11.5725 8.95443 11.4585L9.23393 11.296C9.43155 11.1819 9.65573 11.1218 9.88393 11.1218C10.1121 11.1218 10.3363 11.1819 10.5339 11.296L10.6314 11.348C10.9297 11.5201 11.2841 11.5668 11.6168 11.4778C11.9495 11.3888 12.2333 11.1715 12.4059 10.8735L12.5489 10.62C12.721 10.3217 12.7677 9.96729 12.6787 9.6346C12.5898 9.30191 12.3724 9.01811 12.0744 8.8455L11.9769 8.7935C11.7785 8.67896 11.6139 8.51404 11.4998 8.31543C11.3857 8.11682 11.326 7.89157 11.3269 7.6625V7.3375C11.326 7.10843 11.3857 6.88318 11.4998 6.68457C11.6139 6.48596 11.7785 6.32104 11.9769 6.2065L12.0744 6.148C12.3724 5.97539 12.5898 5.69159 12.6787 5.3589C12.7677 5.02621 12.721 4.67181 12.5489 4.3735L12.4059 4.1265C12.2333 3.8285 11.9495 3.61116 11.6168 3.5222C11.2841 3.43324 10.9297 3.47992 10.6314 3.652L10.5339 3.704C10.3363 3.8181 10.1121 3.87817 9.88393 3.87817C9.65573 3.87817 9.43155 3.8181 9.23393 3.704L8.95443 3.5415C8.757 3.42751 8.59301 3.26361 8.47893 3.06624C8.36484 2.86887 8.30466 2.64497 8.30443 2.417V2.3C8.30443 1.95522 8.16746 1.62456 7.92366 1.38076C7.67987 1.13696 7.34921 1 7.00443 1Z" stroke="#B2B2B2" stroke-linecap="round" stroke-linejoin="round"/>
<path d="M6.86138 9.44996C7.93833 9.44996 8.81138 8.57691 8.81138 7.49996C8.81138 6.423 7.93833 5.54996 6.86138 5.54996C5.78442 5.54996 4.91138 6.423 4.91138 7.49996C4.91138 8.57691 5.78442 9.44996 6.86138 9.44996Z" stroke="#B2B2B2" stroke-linecap="round" stroke-linejoin="round"/>
</svg>
