<svg width="62" height="62" viewBox="0 0 62 62" fill="none" xmlns="http://www.w3.org/2000/svg">
<path d="M3.21 5.73H0.279999V61.43H3.21V5.73Z" fill="#CFD8DC"/>
<path d="M1.93 5.73H0.279999V61.43H1.93V5.73Z" fill="#A9B6BD"/>
<path d="M3.48 5.2H0L1.83 0L1.85 0.04L3.48 5.2Z" fill="#CFD8DC"/>
<path d="M1.96 5.2H0L1.83 0L1.85 0.04L1.96 5.2Z" fill="#A9B6BD"/>
<path d="M61.53 2.87H41.3L34.87 27.68L56.86 27.75L61.53 2.87Z" fill="#D30741"/>
<path d="M56.86 27.75L34.87 27.68L30.11 46.05L53.39 46.17L56.86 27.75Z" fill="#D2D6D8"/>
<path d="M4.00999 6.93V28.52H36.62L42.23 6.93H4.00999Z" fill="#ED0F44"/>
<path d="M4.00999 28.52V50.1H31.01L36.62 28.52H4.00999Z" fill="#DFE5E8"/>
<path d="M17.33 25.36C16.79 25.48 16.22 25.55 15.64 25.55C11.48 25.55 8.11 22.18 8.11 18.02C8.11 13.86 11.48 10.49 15.64 10.49C16.22 10.49 16.79 10.56 17.33 10.68C13.98 11.44 11.49 14.44 11.49 18.02C11.49 21.6 13.98 24.59 17.33 25.36Z" fill="#DFE5E8"/>
<path d="M21.31 15.34L20.23 14.78L19.15 15.35L19.35 14.14L18.47 13.29L19.68 13.11L20.22 12.02L20.76 13.11L21.97 13.28L21.1 14.14L21.31 15.34Z" fill="white"/>
<path d="M18.34 23.42L17.25 22.85L16.17 23.42L16.38 22.22L15.5 21.37L16.71 21.19L17.25 20.09L17.79 21.19L19 21.36L18.13 22.21L18.34 23.42Z" fill="white"/>
<path d="M24.29 23.42L23.2 22.85L22.12 23.42L22.33 22.22L21.45 21.37L22.66 21.19L23.2 20.09L23.74 21.19L24.95 21.36L24.08 22.21L24.29 23.42Z" fill="white"/>
<path d="M16.52 18.53L15.43 17.96L14.35 18.53L14.56 17.33L13.68 16.48L14.89 16.3L15.43 15.2L15.97 16.3L17.18 16.47L16.31 17.33L16.52 18.53Z" fill="white"/>
<path d="M26.11 18.53L25.02 17.96L23.94 18.53L24.15 17.33L23.27 16.48L24.48 16.3L25.02 15.2L25.56 16.3L26.77 16.47L25.9 17.33L26.11 18.53Z" fill="white"/>
<path d="M38.69 6.97L42.23 6.93L41.33 2.87L38.69 6.97Z" fill="#AF003A"/>
</svg>
