<?xml version="1.0" encoding="utf-8"?>
<!-- Generator: Adobe Illustrator 21.1.0, SVG Export Plug-In . SVG Version: 6.00 Build 0)  -->
<svg version="1.1" id="Layer_1" xmlns="http://www.w3.org/2000/svg" xmlns:xlink="http://www.w3.org/1999/xlink" x="0px" y="0px"
	 width="274px" height="70px" viewBox="0 0 274 70" style="enable-background:new 0 0 274 70;" xml:space="preserve">
<style type="text/css">
	.st0{fill:#231F20;}
	.st1{fill:#11817A;}
</style>
<g>
	<polygon class="st0" points="76.8,1.6 76.8,30.1 58.9,30.1 58.9,1.6 5.4,1.6 0.9,10.5 23.2,10.5 23.2,68.4 32.1,68.4 32.1,10.5 
		50,10.5 50,68.4 58.9,68.4 58.9,40 76.8,40 76.8,68.4 85.7,68.4 85.7,1.6 	"/>
	<g>
		<path class="st0" d="M117.2,3.8h-4.7v16H110v-16h-4.7V1.8h12V3.8z"/>
		<path class="st0" d="M131.1,13.3c0,2.1-0.6,3.8-1.7,5c-1.1,1.2-2.7,1.8-4.6,1.8c-1.9,0-3.4-0.6-4.5-1.8c-1.1-1.2-1.7-2.8-1.7-5
			V8.3c0-2.1,0.6-3.8,1.7-5c1.1-1.2,2.6-1.8,4.5-1.8c1.9,0,3.5,0.6,4.6,1.8c1.2,1.2,1.7,2.9,1.7,5V13.3z M128.6,8.3
			c0-1.6-0.3-2.7-1-3.5s-1.6-1.2-2.9-1.2c-1.2,0-2.1,0.4-2.8,1.2s-1,2-1,3.5v5c0,1.6,0.3,2.8,1,3.6c0.6,0.8,1.6,1.2,2.8,1.2
			c1.2,0,2.2-0.4,2.9-1.2c0.7-0.8,1-2,1-3.6V8.3z"/>
		<path class="st0" d="M145.7,1.8v11.8c0,2-0.6,3.5-1.7,4.7c-1.1,1.1-2.6,1.7-4.3,1.7c-1.7,0-3.2-0.6-4.3-1.7
			c-1.1-1.1-1.6-2.7-1.6-4.6V1.8h2.5v11.8c0,1.4,0.3,2.5,0.9,3.3c0.6,0.8,1.4,1.2,2.5,1.2c1.1,0,1.9-0.4,2.5-1.2s1-1.9,1-3.3V1.8
			H145.7z"/>
		<path class="st0" d="M151.4,12v7.7h-2.5V1.8h5.3c1.7,0,3.1,0.4,4,1.3s1.4,2.1,1.4,3.8c0,0.9-0.2,1.8-0.7,2.5
			c-0.4,0.7-1.1,1.2-1.9,1.6c0.9,0.3,1.6,0.8,2,1.6c0.4,0.7,0.6,1.6,0.6,2.7v1.6c0,0.5,0.1,1.1,0.2,1.5c0.1,0.5,0.3,0.8,0.6,1.1v0.3
			h-2.6c-0.3-0.3-0.5-0.7-0.5-1.2c-0.1-0.6-0.1-1.1-0.1-1.7v-1.5c0-1-0.2-1.8-0.7-2.4c-0.5-0.6-1.1-0.9-1.9-0.9H151.4z M151.4,10.1
			h2.7c1,0,1.8-0.3,2.3-0.8c0.5-0.5,0.7-1.3,0.7-2.3c0-1-0.2-1.8-0.7-2.4c-0.5-0.6-1.2-0.8-2.2-0.8h-2.8V10.1z"/>
		<path class="st0" d="M165.7,19.8h-2.5V1.8h2.5V19.8z"/>
		<path class="st0" d="M177.5,15.2c0-0.8-0.2-1.5-0.7-2c-0.5-0.5-1.3-1-2.5-1.4c-1.7-0.5-3-1.2-3.9-2s-1.4-1.9-1.4-3.3
			c0-1.4,0.5-2.6,1.5-3.5c1-0.9,2.3-1.4,3.8-1.4c1.7,0,3,0.5,4,1.5c1,1,1.5,2.3,1.5,3.8l0,0.1h-2.4c0-1.1-0.3-1.9-0.8-2.5
			s-1.3-1-2.2-1c-0.9,0-1.6,0.3-2.1,0.8s-0.7,1.3-0.7,2.1c0,0.8,0.3,1.4,0.8,1.9c0.5,0.5,1.4,1,2.6,1.4c1.6,0.5,2.9,1.2,3.7,2.1
			c0.9,0.9,1.3,2,1.3,3.3c0,1.5-0.5,2.6-1.5,3.5c-1,0.9-2.3,1.3-4,1.3c-1.6,0-2.9-0.5-4.1-1.4s-1.7-2.3-1.7-4l0-0.1h2.4
			c0,1.2,0.3,2.1,1,2.7c0.6,0.6,1.4,0.9,2.4,0.9c0.9,0,1.7-0.3,2.2-0.8C177.2,16.8,177.5,16.1,177.5,15.2z"/>
		<path class="st0" d="M190.3,16.5L190.3,16.5l4.4-14.6h3.2v17.9h-2.5V6.8l-0.1,0l-4.1,12.9h-1.7l-4.2-13.1l-0.1,0v13.1h-2.5V1.8
			h3.3L190.3,16.5z"/>
	</g>
	<g>
		<path class="st0" d="M109.2,44h-2.5V26h2.5V44z"/>
		<path class="st0" d="M124.9,44h-2.5l-6.9-13.2l-0.1,0V44h-2.5V26h2.5l6.9,13.2l0.1,0V26h2.5V44z"/>
		<path class="st0" d="M137.1,36h-6.3v8h-2.5V26h9.8V28h-7.3v6.1h6.3V36z"/>
		<path class="st0" d="M152.6,37.5c0,2.1-0.6,3.8-1.7,5c-1.1,1.2-2.7,1.8-4.6,1.8c-1.9,0-3.4-0.6-4.5-1.8c-1.1-1.2-1.7-2.8-1.7-5
			v-4.9c0-2.1,0.6-3.8,1.7-5c1.1-1.2,2.6-1.8,4.5-1.8c1.9,0,3.5,0.6,4.6,1.8c1.2,1.2,1.7,2.9,1.7,5V37.5z M150.1,32.5
			c0-1.6-0.3-2.7-1-3.5c-0.7-0.8-1.6-1.2-2.9-1.2c-1.2,0-2.1,0.4-2.8,1.2s-1,2-1,3.5v5c0,1.6,0.3,2.8,1,3.6c0.6,0.8,1.6,1.2,2.8,1.2
			c1.2,0,2.2-0.4,2.9-1.2c0.7-0.8,1-2,1-3.6V32.5z"/>
		<path class="st0" d="M158,36.2V44h-2.5V26.1h5.3c1.7,0,3.1,0.4,4,1.3c0.9,0.9,1.4,2.1,1.4,3.8c0,0.9-0.2,1.8-0.7,2.5
			c-0.4,0.7-1.1,1.2-1.9,1.6c0.9,0.3,1.6,0.8,2,1.6s0.6,1.6,0.6,2.7V41c0,0.5,0.1,1.1,0.2,1.5s0.3,0.8,0.6,1.1V44h-2.6
			c-0.3-0.3-0.5-0.7-0.5-1.2c-0.1-0.6-0.1-1.1-0.1-1.7v-1.5c0-1-0.2-1.8-0.7-2.4c-0.5-0.6-1.1-0.9-1.9-0.9H158z M158,34.3h2.7
			c1,0,1.8-0.3,2.3-0.8c0.5-0.5,0.7-1.3,0.7-2.3c0-1-0.2-1.8-0.7-2.4c-0.5-0.6-1.2-0.8-2.2-0.8H158V34.3z"/>
		<path class="st0" d="M177,40.7L177,40.7l4.4-14.6h3.2V44H182V31.1l-0.1,0L177.9,44h-1.7L172,30.8l-0.1,0V44h-2.5V26h3.3L177,40.7z
			"/>
		<path class="st0" d="M196,39.4h-5.4l-1.3,4.5h-2.6l5.4-17.9h2.4l5.3,17.9h-2.6L196,39.4z M191.2,37.4h4.2l-2.1-7.3h-0.1
			L191.2,37.4z"/>
		<path class="st0" d="M211.1,28h-4.7v16h-2.5V28h-4.7V26h12V28z"/>
		<path class="st0" d="M215.9,44h-2.5V26h2.5V44z"/>
		<path class="st0" d="M231.7,37.5c0,2.1-0.6,3.8-1.7,5c-1.1,1.2-2.7,1.8-4.6,1.8c-1.9,0-3.4-0.6-4.5-1.8c-1.1-1.2-1.7-2.8-1.7-5
			v-4.9c0-2.1,0.6-3.8,1.7-5c1.1-1.2,2.6-1.8,4.5-1.8c1.9,0,3.5,0.6,4.6,1.8c1.2,1.2,1.7,2.9,1.7,5V37.5z M229.2,32.5
			c0-1.6-0.3-2.7-1-3.5c-0.7-0.8-1.6-1.2-2.9-1.2c-1.2,0-2.1,0.4-2.8,1.2c-0.6,0.8-1,2-1,3.5v5c0,1.6,0.3,2.8,1,3.6
			c0.6,0.8,1.6,1.2,2.8,1.2c1.2,0,2.2-0.4,2.9-1.2c0.7-0.8,1-2,1-3.6V32.5z"/>
		<path class="st0" d="M246.6,44h-2.5l-6.9-13.2l-0.1,0V44h-2.5V26h2.5l6.9,13.2l0.1,0V26h2.5V44z"/>
	</g>
	<g>
		<path class="st0" d="M105.6,63.5c0-1,0.3-1.9,0.8-2.6c0.5-0.8,1.3-1.5,2.3-2.3c-0.6-0.8-1-1.5-1.2-2.2c-0.3-0.6-0.4-1.3-0.4-2
			c0-1.4,0.4-2.5,1.1-3.2c0.7-0.7,1.7-1.1,3-1.1c1.2,0,2.1,0.4,2.8,1.1c0.7,0.7,1.1,1.6,1.1,2.7c0,0.8-0.2,1.5-0.5,2.1
			c-0.3,0.6-0.8,1.1-1.5,1.7l-1.4,1.1l3.6,4.8l0.1,0c0.3-0.5,0.5-1,0.6-1.6c0.1-0.6,0.2-1.3,0.2-1.9h2.1c0,1.1-0.1,2.1-0.4,3
			s-0.7,1.7-1.2,2.4l2.2,2.9H116l-1-1.3c-0.6,0.5-1.3,0.9-2,1.2s-1.4,0.4-2.2,0.4c-1.6,0-2.9-0.5-3.8-1.4S105.6,64.9,105.6,63.5z
			 M110.9,66.5c0.5,0,1-0.1,1.6-0.3s1-0.5,1.4-0.9l-4-5.3l-0.3,0.2c-0.6,0.6-1,1.1-1.2,1.7s-0.3,1-0.3,1.4c0,0.9,0.2,1.7,0.7,2.2
			C109.4,66.2,110.1,66.5,110.9,66.5z M109.4,54.3c0,0.4,0.1,0.8,0.3,1.3s0.5,0.9,0.8,1.5l1.3-1c0.4-0.3,0.7-0.7,0.9-1
			c0.2-0.4,0.2-0.8,0.2-1.2c0-0.5-0.2-1-0.5-1.4c-0.3-0.4-0.7-0.6-1.3-0.6c-0.5,0-1,0.2-1.3,0.7C109.6,53.1,109.4,53.6,109.4,54.3z"
			/>
		<path class="st0" d="M134.9,63.7c0-0.8-0.2-1.5-0.7-2c-0.5-0.5-1.3-1-2.5-1.4c-1.7-0.5-3-1.2-3.9-2s-1.4-1.9-1.4-3.3
			c0-1.4,0.5-2.6,1.5-3.5c1-0.9,2.3-1.4,3.8-1.4c1.7,0,3,0.5,4,1.5c1,1,1.5,2.3,1.5,3.8l0,0.1h-2.4c0-1-0.3-1.9-0.8-2.5
			s-1.3-1-2.2-1c-0.9,0-1.6,0.3-2.1,0.8c-0.5,0.6-0.7,1.3-0.7,2.1c0,0.8,0.3,1.4,0.8,1.9c0.5,0.5,1.4,1,2.6,1.4
			c1.6,0.5,2.9,1.2,3.7,2.1c0.9,0.9,1.3,2,1.3,3.3c0,1.5-0.5,2.6-1.5,3.5c-1,0.9-2.3,1.3-4,1.3c-1.6,0-2.9-0.5-4.1-1.4
			c-1.2-0.9-1.7-2.3-1.7-4l0-0.1h2.4c0,1.2,0.3,2.1,1,2.7c0.6,0.6,1.4,0.9,2.4,0.9c0.9,0,1.7-0.3,2.2-0.8
			C134.6,65.2,134.9,64.5,134.9,63.7z"/>
		<path class="st0" d="M148.7,59.8h-6.1v6.4h7.2v1.9h-9.7V50.2h9.6v1.9h-7.1v5.8h6.1V59.8z"/>
		<path class="st0" d="M154.8,60.4v7.7h-2.5V50.3h5.3c1.7,0,3.1,0.4,4,1.3c0.9,0.9,1.4,2.1,1.4,3.8c0,0.9-0.2,1.8-0.7,2.5
			c-0.4,0.7-1.1,1.2-1.9,1.6c0.9,0.3,1.6,0.8,2,1.6s0.6,1.6,0.6,2.7v1.6c0,0.5,0.1,1.1,0.2,1.5c0.1,0.5,0.3,0.8,0.6,1.1v0.3h-2.6
			c-0.3-0.3-0.5-0.7-0.5-1.2c-0.1-0.6-0.1-1.1-0.1-1.7v-1.5c0-1-0.2-1.8-0.7-2.4c-0.5-0.6-1.1-0.9-1.9-0.9H154.8z M154.8,58.5h2.7
			c1,0,1.8-0.3,2.3-0.8c0.5-0.5,0.7-1.3,0.7-2.3c0-1-0.2-1.8-0.7-2.4c-0.5-0.6-1.2-0.8-2.2-0.8h-2.8V58.5z"/>
		<path class="st0" d="M171,64.1l0.3,1.1h0.1l0.3-1.1l3.7-13.8h2.7l-5.5,17.9h-2.4l-5.5-17.9h2.7L171,64.1z"/>
		<path class="st0" d="M182.7,68.2h-2.5V50.2h2.5V68.2z"/>
		<path class="st0" d="M197.5,62.8L197.5,62.8c0.1,1.8-0.4,3.2-1.5,4.2c-1,1-2.4,1.5-4.2,1.5c-1.8,0-3.3-0.6-4.4-1.8
			c-1.1-1.2-1.6-2.8-1.6-5v-5c0-2.1,0.5-3.8,1.6-5c1.1-1.2,2.5-1.8,4.3-1.8c1.8,0,3.3,0.5,4.3,1.4c1,0.9,1.5,2.3,1.5,4.2l0,0.1h-2.4
			c0-1.3-0.3-2.2-0.8-2.8c-0.6-0.6-1.4-0.9-2.5-0.9c-1.1,0-1.9,0.4-2.5,1.2c-0.6,0.8-0.9,2-0.9,3.5v5c0,1.6,0.3,2.8,0.9,3.6
			c0.6,0.8,1.5,1.2,2.6,1.2c1.1,0,1.9-0.3,2.4-0.9c0.5-0.6,0.8-1.5,0.8-2.9H197.5z"/>
		<path class="st0" d="M208.8,59.8h-6.1v6.4h7.2v1.9h-9.7V50.2h9.6v1.9h-7.1v5.8h6.1V59.8z"/>
		<path class="st0" d="M220.6,63.7c0-0.8-0.2-1.5-0.7-2c-0.5-0.5-1.3-1-2.5-1.4c-1.7-0.5-3-1.2-3.9-2s-1.4-1.9-1.4-3.3
			c0-1.4,0.5-2.6,1.5-3.5c1-0.9,2.3-1.4,3.8-1.4c1.7,0,3,0.5,4,1.5s1.5,2.3,1.5,3.8l0,0.1h-2.4c0-1-0.3-1.9-0.8-2.5
			c-0.6-0.6-1.3-1-2.2-1c-0.9,0-1.6,0.3-2.1,0.8c-0.5,0.6-0.7,1.3-0.7,2.1c0,0.8,0.3,1.4,0.8,1.9c0.5,0.5,1.4,1,2.6,1.4
			c1.6,0.5,2.9,1.2,3.7,2.1c0.9,0.9,1.3,2,1.3,3.3c0,1.5-0.5,2.6-1.5,3.5c-1,0.9-2.3,1.3-4,1.3c-1.6,0-2.9-0.5-4.1-1.4
			c-1.2-0.9-1.7-2.3-1.7-4l0-0.1h2.4c0,1.2,0.3,2.1,1,2.7c0.6,0.6,1.4,0.9,2.4,0.9c0.9,0,1.7-0.3,2.2-0.8
			C220.3,65.2,220.6,64.5,220.6,63.7z"/>
		<path class="st0" d="M243.4,68.2H241v-7.9h-7v7.9h-2.5V50.2h2.5v8.1h7v-8.1h2.5V68.2z"/>
		<path class="st0" d="M258.6,50.2v11.8c0,2-0.6,3.5-1.7,4.7s-2.6,1.7-4.3,1.7c-1.7,0-3.2-0.6-4.3-1.7c-1.1-1.1-1.6-2.7-1.6-4.6
			V50.2h2.5v11.8c0,1.4,0.3,2.5,0.9,3.3c0.6,0.8,1.4,1.2,2.5,1.2c1.1,0,1.9-0.4,2.5-1.2c0.6-0.8,1-1.9,1-3.3V50.2H258.6z"/>
		<path class="st0" d="M261.8,68.2V50.2h5c1.7,0,3.1,0.4,4,1.2s1.4,2,1.4,3.6c0,0.8-0.2,1.6-0.6,2.2c-0.4,0.6-1,1.1-1.7,1.4
			c1,0.2,1.8,0.7,2.4,1.5c0.6,0.8,0.8,1.8,0.8,2.9c0,1.6-0.5,2.9-1.4,3.8c-0.9,0.9-2.3,1.3-3.9,1.3H261.8z M264.3,58h2.8
			c0.8,0,1.4-0.3,1.9-0.8c0.5-0.5,0.7-1.2,0.7-2.1c0-1-0.3-1.7-0.8-2.2c-0.5-0.5-1.2-0.7-2.2-0.7h-2.5V58z M264.3,59.8v6.5h3.5
			c0.9,0,1.6-0.3,2.1-0.8s0.7-1.3,0.7-2.3c0-1-0.2-1.8-0.7-2.4s-1.2-0.9-2-0.9h-0.1H264.3z"/>
	</g>
	<rect x="94.7" class="st0" width="2.1" height="70"/>
</g>
<rect x="36.6" y="15" class="st1" width="8.9" height="53.4"/>
</svg>
